<?xml version="1.0" encoding="utf-8"?>
<!-- Generator: Adobe Illustrator 17.0.0, SVG Export Plug-In . SVG Version: 6.00 Build 0)  -->
<!DOCTYPE svg PUBLIC "-//W3C//DTD SVG 1.1//EN" "http://www.w3.org/Graphics/SVG/1.1/DTD/svg11.dtd">
<svg version="1.1" id="图层_1" xmlns="http://www.w3.org/2000/svg" xmlns:xlink="http://www.w3.org/1999/xlink" x="0px" y="0px"
	 width="600px" height="200px" viewBox="0 0 600 200" enable-background="new 0 0 600 200" xml:space="preserve">
<g>
	<path fill="#FFFFFF" d="M213.443,59.365c0,0.28-0.084,0.603-0.252,0.967c-1.037,2.047-2.243,4.164-3.617,6.351
		c-1.374,2.187-2.86,4.332-4.458,6.435c-1.598,2.103-3.273,4.087-5.026,5.951c-1.752,1.865-3.505,3.505-5.257,4.921
		c-1.752,1.416-3.477,2.537-5.173,3.365c-1.696,0.828-3.287,1.241-4.773,1.241c-3.252,0-5.797-1.234-7.633-3.701
		c-1.836-2.467-2.811-6.112-2.923-10.935l-0.547-0.21c-0.28,0.28-0.736,0.855-1.367,1.724c-0.631,0.869-1.388,1.872-2.271,3.007
		c-0.883,1.136-1.865,2.32-2.944,3.554c-1.079,1.234-2.194,2.355-3.344,3.365c-0.701,0.589-1.549,1.297-2.544,2.124
		c-0.995,0.827-2.117,1.626-3.365,2.397c-1.248,0.771-2.615,1.444-4.101,2.019s-3.056,0.904-4.71,0.988
		c-1.991,0-3.561-0.379-4.71-1.136c-1.15-0.757-2.019-1.724-2.608-2.902c-0.589-1.178-0.96-2.481-1.115-3.911
		c-0.154-1.43-0.231-2.818-0.231-4.164c0-0.168,0.028-0.589,0.084-1.262c0.056-0.673,0.14-1.521,0.252-2.544
		c0.112-1.023,0.259-2.166,0.442-3.428c0.182-1.262,0.407-2.544,0.673-3.848c0.266-1.304,0.575-2.594,0.925-3.869
		c0.35-1.276,0.764-2.446,1.241-3.512c0.252-0.589,0.484-1.136,0.694-1.64c0.21-0.505,0.435-0.932,0.673-1.283
		c0.238-0.35,0.512-0.631,0.82-0.841c0.308-0.21,0.687-0.329,1.136-0.357c0.561,0,1.03,0.112,1.409,0.336s0.68,0.512,0.904,0.862
		s0.386,0.736,0.484,1.157s0.147,0.841,0.147,1.262s-0.189,1.248-0.568,2.481c-0.379,1.234-0.792,2.734-1.241,4.5
		c-0.449,1.766-0.862,3.736-1.241,5.909s-0.568,4.423-0.568,6.75c0,0.449,0.042,0.974,0.126,1.577
		c0.084,0.603,0.252,1.178,0.505,1.724c0.253,0.546,0.596,1.009,1.03,1.388c0.434,0.379,1.002,0.568,1.703,0.568
		c0.953-0.056,1.935-0.259,2.944-0.61c1.009-0.35,2.012-0.799,3.007-1.346c0.995-0.547,1.956-1.164,2.881-1.851
		c0.925-0.687,1.766-1.395,2.523-2.124c0.813-0.757,1.675-1.633,2.586-2.629c0.911-0.995,1.801-2.033,2.671-3.112
		c0.869-1.079,1.682-2.152,2.439-3.217s1.388-2.047,1.893-2.944c0.252-0.477,0.61-1.178,1.072-2.103
		c0.463-0.925,0.925-1.907,1.388-2.944c0.463-1.037,0.883-2.019,1.262-2.944s0.624-1.626,0.736-2.103
		c0.112-0.421,0.203-0.813,0.273-1.178c0.07-0.364,0.147-0.722,0.231-1.072c0.084-0.35,0.182-0.722,0.294-1.115
		s0.252-0.841,0.421-1.346c0.084-0.196,0.245-0.414,0.484-0.652c0.239-0.238,0.526-0.456,0.862-0.652s0.687-0.357,1.051-0.484
		c0.364-0.126,0.715-0.189,1.051-0.189c0.785,0,1.381,0.238,1.787,0.715c0.407,0.477,0.638,1.065,0.694,1.766
		c0,0.028-0.063,0.35-0.189,0.967c-0.126,0.617-0.287,1.43-0.484,2.439c-0.196,1.009-0.4,2.159-0.61,3.449
		c-0.21,1.29-0.414,2.615-0.61,3.974c-0.196,1.36-0.357,2.692-0.484,3.995c-0.126,1.304-0.189,2.474-0.189,3.512
		c0,2.972,0.498,5.264,1.493,6.876s2.306,2.418,3.932,2.418c1.402,0,2.867-0.414,4.395-1.241c1.528-0.827,3.07-1.914,4.626-3.259
		s3.084-2.853,4.584-4.521s2.937-3.337,4.311-5.005s2.65-3.259,3.827-4.773c1.178-1.514,2.201-2.79,3.07-3.827
		c0.869-0.925,1.556-1.388,2.061-1.388c0.308,0,0.561,0.112,0.757,0.336C213.345,58.79,213.443,59.057,213.443,59.365z"/>
	<path fill="#FFFFFF" d="M289.272,61.258c0,0.617-0.371,1.346-1.115,2.187c-0.743,0.841-1.633,1.626-2.671,2.355
		c-0.533,0.364-1.178,0.729-1.935,1.093c-0.757,0.364-1.591,0.687-2.502,0.967s-1.879,0.505-2.902,0.673s-2.054,0.252-3.091,0.252
		c-0.505,0-1.107-0.035-1.808-0.105c-0.701-0.07-1.451-0.182-2.25-0.336s-1.64-0.364-2.523-0.631
		c-0.883-0.266-1.759-0.596-2.629-0.988c-0.645,0.449-1.297,1.192-1.956,2.229c-0.659,1.037-1.304,2.236-1.935,3.596
		s-1.22,2.832-1.766,4.416c-0.547,1.584-1.03,3.147-1.451,4.689c-0.336,1.262-0.68,2.579-1.03,3.953s-0.729,2.727-1.136,4.058
		c-0.407,1.332-0.855,2.601-1.346,3.806c-0.491,1.206-1.044,2.264-1.661,3.175c-0.617,0.911-1.304,1.633-2.061,2.166
		c-0.757,0.533-1.612,0.799-2.565,0.799c-1.093,0-2.082-0.322-2.965-0.967c-0.883-0.645-1.675-1.451-2.376-2.418
		c-0.701-0.967-1.318-2.012-1.851-3.133c-0.533-1.122-0.995-2.173-1.388-3.154c-0.084-0.224-0.294-0.813-0.631-1.766
		c-0.336-0.953-0.729-2.075-1.178-3.365c-0.449-1.29-0.911-2.65-1.388-4.08c-0.477-1.43-0.918-2.748-1.325-3.953
		c-0.407-1.206-0.743-2.208-1.009-3.007c-0.266-0.799-0.386-1.199-0.357-1.199c-0.168,0-0.449,0.343-0.841,1.03
		s-0.834,1.563-1.325,2.629c-0.491,1.065-1.002,2.222-1.535,3.47c-0.533,1.248-1.03,2.432-1.493,3.554
		c-0.463,1.122-0.855,2.103-1.178,2.944c-0.322,0.841-0.526,1.36-0.61,1.556c-0.477,1.262-1.058,2.699-1.745,4.311
		c-0.687,1.612-1.423,3.133-2.208,4.563c-0.785,1.43-1.591,2.636-2.418,3.617s-1.619,1.472-2.376,1.472
		c-1.009,0-1.949-0.336-2.818-1.009s-1.57-1.486-2.103-2.439c-0.14-0.252-0.329-0.694-0.568-1.325
		c-0.238-0.631-0.505-1.36-0.799-2.187c-0.294-0.827-0.603-1.71-0.925-2.65c-0.322-0.94-0.624-1.822-0.904-2.65
		c-0.28-0.828-0.533-1.556-0.757-2.187s-0.379-1.072-0.463-1.325c-0.336-0.897-0.708-1.935-1.115-3.112s-0.806-2.432-1.199-3.764
		s-0.771-2.713-1.136-4.143c-0.365-1.43-0.68-2.832-0.946-4.206c-0.266-1.374-0.456-2.699-0.568-3.974
		c-0.112-1.276-0.126-2.418-0.042-3.428c0-3.449,1.584-5.173,4.752-5.173c0.336,0,0.652,0.112,0.946,0.336s0.568,0.526,0.82,0.904
		c0.252,0.379,0.477,0.806,0.673,1.283c0.196,0.477,0.35,0.967,0.463,1.472c0.084,2.888,0.259,5.685,0.526,8.39
		s0.68,5.292,1.241,7.759c0.589,2.523,1.136,4.626,1.64,6.309c0.505,1.682,0.974,3.028,1.409,4.037s0.841,1.717,1.22,2.124
		s0.736,0.61,1.072,0.61c0.645,0,2.061-2.369,4.248-7.108c1.122-2.383,2.082-4.507,2.881-6.372c0.799-1.865,1.465-3.512,1.998-4.942
		c0.308-0.757,0.687-1.605,1.136-2.544c0.449-0.939,0.897-1.879,1.346-2.818c0.449-0.939,0.883-1.843,1.304-2.713
		c0.421-0.869,0.771-1.626,1.051-2.271c0.308-0.813,0.778-1.507,1.409-2.082c0.631-0.575,1.339-0.862,2.124-0.862
		c0.673,0,1.185,0.238,1.535,0.715s0.582,1.192,0.694,2.145c0.505,4.037,1.122,7.689,1.851,10.956
		c0.729,3.266,1.542,6.259,2.439,8.979c1.851,5.299,3.603,7.949,5.257,7.949c0.505,0,0.981-0.245,1.43-0.736
		c0.449-0.491,0.89-1.15,1.325-1.977s0.848-1.787,1.241-2.881c0.393-1.094,0.785-2.25,1.178-3.47
		c0.393-1.22,0.771-2.474,1.136-3.764c0.365-1.29,0.729-2.523,1.093-3.701c0.168-0.561,0.386-1.346,0.652-2.355
		s0.589-2.103,0.967-3.28c0.379-1.178,0.799-2.362,1.262-3.554c0.463-1.192,0.995-2.271,1.598-3.238
		c0.603-0.967,1.262-1.745,1.977-2.334s1.493-0.869,2.334-0.841c0.645,0.028,1.157,0.091,1.535,0.189
		c0.379,0.098,0.687,0.231,0.925,0.4c0.238,0.168,0.456,0.364,0.652,0.589s0.421,0.477,0.673,0.757
		c0.393,0.421,0.939,0.778,1.64,1.072c0.701,0.294,1.451,0.526,2.25,0.694s1.584,0.294,2.355,0.379
		c0.771,0.084,1.423,0.126,1.956,0.126c1.15,0,2.208-0.063,3.175-0.189c0.967-0.126,1.879-0.308,2.734-0.547
		c0.855-0.238,1.689-0.512,2.502-0.82c0.813-0.308,1.626-0.645,2.439-1.009c0.168-0.056,0.315-0.147,0.442-0.273
		c0.126-0.126,0.301-0.189,0.526-0.189C288.991,59.449,289.272,60.052,289.272,61.258z"/>
	<path fill="#FFFFFF" d="M321.214,63.234c-0.266,0.533-0.596,0.967-0.988,1.304c-0.393,0.336-0.827,0.582-1.304,0.736
		s-0.939,0.231-1.388,0.231c-0.393,0-0.862-0.07-1.409-0.21s-1.1-0.224-1.661-0.252c-1.093,0-2.404,0.301-3.932,0.904
		s-3.091,1.381-4.689,2.334s-3.154,2.019-4.668,3.196c-1.514,1.178-2.79,2.341-3.827,3.491c-0.561,0.645-1.157,1.36-1.787,2.145
		c-0.631,0.785-1.241,1.612-1.829,2.481c-0.589,0.869-1.115,1.752-1.577,2.65c-0.463,0.897-0.792,1.766-0.988,2.608
		c-0.112,0.449-0.154,1.002-0.126,1.661c0.028,0.659,0.084,1.374,0.168,2.145c0.084,0.771,0.175,1.57,0.273,2.397
		c0.098,0.827,0.147,1.619,0.147,2.376c0,0.449-0.007,0.876-0.021,1.283s-0.063,0.792-0.147,1.157
		c-0.056,0.252-0.21,0.526-0.463,0.82c-0.252,0.294-0.561,0.568-0.925,0.82c-0.364,0.252-0.764,0.47-1.199,0.652
		c-0.435,0.182-0.848,0.273-1.241,0.273c-0.645-0.028-1.192-0.364-1.64-1.009c-0.449-0.645-0.813-1.528-1.093-2.65
		s-0.477-2.446-0.589-3.974s-0.168-3.189-0.168-4.984c0-0.533,0.014-1.318,0.042-2.355c0.028-1.037,0.063-2.096,0.105-3.175
		c0.042-1.079,0.084-2.054,0.126-2.923c0.042-0.869,0.063-1.402,0.063-1.598c0.028-0.477,0.063-1.122,0.105-1.935
		s0.098-1.703,0.168-2.671c0.07-0.967,0.154-1.956,0.252-2.965c0.098-1.009,0.203-1.935,0.315-2.776
		c0.056-0.336,0.112-0.827,0.168-1.472s0.119-1.311,0.189-1.998s0.147-1.346,0.231-1.977s0.168-1.1,0.252-1.409
		c0.084-0.336,0.273-0.729,0.568-1.178s0.652-0.883,1.072-1.304c0.421-0.421,0.89-0.778,1.409-1.072
		c0.519-0.294,1.058-0.442,1.619-0.442c0.589,0.028,1.072,0.147,1.451,0.357s0.68,0.463,0.904,0.757s0.379,0.603,0.463,0.925
		c0.084,0.322,0.126,0.61,0.126,0.862c0,0.14-0.049,0.414-0.147,0.82c-0.098,0.407-0.231,0.883-0.4,1.43
		c-0.168,0.547-0.343,1.136-0.526,1.766s-0.35,1.227-0.505,1.787c-0.154,0.561-0.287,1.065-0.4,1.514
		c-0.112,0.449-0.168,0.757-0.168,0.925c0,0.224-0.035,0.652-0.105,1.283s-0.14,1.353-0.21,2.166c-0.07,0.813-0.14,1.661-0.21,2.544
		s-0.105,1.661-0.105,2.334c0,0.224,0,0.435,0,0.631s0.014,0.379,0.042,0.547c1.037-1.29,2.18-2.636,3.428-4.037
		s2.572-2.783,3.974-4.143s2.86-2.657,4.374-3.89c1.514-1.234,3.049-2.32,4.605-3.259s3.112-1.682,4.668-2.229
		s3.077-0.82,4.563-0.82c0.841,0.028,1.577,0.21,2.208,0.547s1.157,0.736,1.577,1.199c0.421,0.463,0.729,0.932,0.925,1.409
		s0.294,0.883,0.294,1.22v0.042C321.627,62.043,321.48,62.702,321.214,63.234z"/>
	<path fill="#FFFFFF" d="M373.133,69.585c0.028,0.589-0.231,1.388-0.778,2.397c-0.547,1.009-1.29,2.152-2.229,3.428
		s-2.033,2.643-3.28,4.101c-1.248,1.458-2.558,2.916-3.932,4.374c-1.57,1.682-3.231,3.301-4.984,4.858
		c-1.752,1.556-3.624,3.063-5.615,4.521c-3.925,2.916-7.43,4.374-10.514,4.374c-3.393,0-6.028-1.136-7.907-3.407
		c-1.879-2.299-3.154-5.075-3.827-8.327c-0.673-3.224-1.009-6.547-1.009-9.967c0-1.43,0.168-3.659,0.505-6.687
		c0.168-1.514,0.336-2.818,0.505-3.911c0.168-1.093,0.35-1.977,0.547-2.65c0.393-1.318,1.22-2.467,2.481-3.449
		c1.29-1.037,2.636-1.556,4.037-1.556c0.757,0,1.136,0.715,1.136,2.145c0,0.953-0.091,2.033-0.273,3.238
		c-0.182,1.206-0.372,2.397-0.568,3.575c-0.365,2.215-0.631,4.199-0.799,5.951c-0.168,1.752-0.252,3.273-0.252,4.563
		c0,2.832,0.393,5.692,1.178,8.58c0.785,2.944,2.201,4.416,4.248,4.416c2.075,0,4.486-0.757,7.234-2.271
		c1.374-0.785,2.748-1.654,4.122-2.608c1.374-0.953,2.748-2.019,4.122-3.196c1.402-1.178,2.748-2.362,4.037-3.554
		c1.29-1.192,2.551-2.418,3.785-3.68s2.341-2.439,3.323-3.533s1.836-2.103,2.565-3.028c0.028-0.056,0.077-0.147,0.147-0.273
		s0.147-0.252,0.231-0.379c0.084-0.126,0.168-0.231,0.252-0.315s0.168-0.112,0.252-0.084c0.393,0,0.687,0.308,0.883,0.925
		C373.007,68.744,373.133,69.22,373.133,69.585z M345.586,35.393c0,1.822-0.477,3.379-1.43,4.668
		c-0.925,1.29-2.285,1.935-4.08,1.935c-1.121,0-2.369-0.168-3.743-0.505c-1.346-0.336-2.019-0.883-2.019-1.64
		c0-1.374,0.428-2.685,1.283-3.932c0.855-1.248,1.886-2.264,3.091-3.049c0.953-0.561,1.584-0.841,1.893-0.841
		c1.598,0,2.832,0.217,3.701,0.652S345.586,34.019,345.586,35.393z"/>
	<path fill="#FFFFFF" d="M368.675,85.062c0-2.355,0.203-4.668,0.61-6.939c0.407-2.271,0.855-4.437,1.346-6.498
		s0.939-3.96,1.346-5.699c0.407-1.738,0.61-3.252,0.61-4.542c0-0.421-0.126-0.68-0.379-0.778c-0.252-0.098-0.589-0.147-1.009-0.147
		c-0.336,0-0.708,0.042-1.115,0.126c-0.407,0.084-0.827,0.168-1.262,0.252s-0.855,0.168-1.262,0.252
		c-0.407,0.084-0.764,0.126-1.072,0.126c-0.953,0-1.794-0.007-2.523-0.021s-1.346-0.119-1.85-0.315
		c-0.505-0.196-0.883-0.533-1.136-1.009c-0.252-0.477-0.379-1.178-0.379-2.103c0-0.393,0.133-0.722,0.4-0.988
		s0.603-0.484,1.009-0.652s0.855-0.287,1.346-0.357s0.96-0.105,1.409-0.105c0.336,0,0.848-0.035,1.535-0.105
		s1.416-0.154,2.187-0.252c0.771-0.098,1.507-0.189,2.208-0.273c0.701-0.084,1.22-0.14,1.556-0.168
		c0.449-0.028,0.883-0.259,1.304-0.694s0.785-0.946,1.093-1.535c0.308-0.589,0.568-1.192,0.778-1.808
		c0.21-0.617,0.357-1.136,0.442-1.556c0.14-0.757,0.315-1.703,0.526-2.839c0.21-1.136,0.442-2.285,0.694-3.449
		c0.252-1.164,0.526-2.271,0.82-3.322s0.596-1.886,0.904-2.502c0.336-0.673,0.729-1.185,1.178-1.535s1.009-0.526,1.682-0.526
		c1.991,0,2.986,1.079,2.986,3.238c0,1.29-0.294,2.818-0.883,4.584c-0.168,0.561-0.365,1.234-0.589,2.019
		c-0.224,0.785-0.435,1.591-0.631,2.418c-0.196,0.827-0.364,1.605-0.505,2.334c-0.14,0.729-0.21,1.318-0.21,1.766
		c0,0.981,0.505,1.472,1.514,1.472c1.206,0,2.257-0.014,3.154-0.042s1.78-0.084,2.65-0.168s1.815-0.21,2.839-0.379
		c1.023-0.168,2.278-0.407,3.764-0.715c1.206-0.252,2.124-0.456,2.755-0.61s1.185-0.301,1.661-0.442
		c0.477-0.14,0.974-0.287,1.493-0.442c0.519-0.154,1.241-0.357,2.166-0.61c0,0.056,0.091,0.147,0.273,0.273s0.379,0.273,0.589,0.442
		c0.21,0.168,0.4,0.329,0.568,0.484c0.168,0.154,0.252,0.273,0.252,0.357c0,0.477-0.098,0.904-0.294,1.283s-0.442,0.722-0.736,1.03
		s-0.624,0.582-0.988,0.82c-0.365,0.238-0.729,0.456-1.093,0.652c-1.794,0.785-3.778,1.402-5.951,1.85
		c-2.173,0.449-4.311,0.841-6.414,1.178c-1.402,0.224-2.664,0.421-3.785,0.589s-2.096,0.35-2.923,0.547
		c-0.827,0.196-1.521,0.414-2.082,0.652s-0.967,0.554-1.22,0.946c-0.14,0.421-0.343,1.15-0.61,2.187
		c-0.266,1.037-0.561,2.194-0.883,3.47s-0.638,2.586-0.946,3.932s-0.561,2.551-0.757,3.617c-0.112,0.505-0.231,1.213-0.357,2.124
		s-0.252,1.858-0.379,2.839c-0.126,0.981-0.224,1.907-0.294,2.776s-0.105,1.514-0.105,1.935c0.056,2.467,0.519,4.234,1.388,5.299
		s2.355,1.598,4.458,1.598c1.458-0.084,2.832-0.245,4.122-0.484c1.29-0.238,2.615-0.638,3.974-1.199s2.825-1.311,4.395-2.25
		c1.57-0.939,3.379-2.138,5.425-3.596c0.617-0.449,1.213-0.918,1.787-1.409c0.575-0.491,1.115-0.932,1.619-1.325
		c0.505-0.393,0.981-0.722,1.43-0.988s0.869-0.4,1.262-0.4c0.505,0,0.82,0.091,0.946,0.273s0.189,0.512,0.189,0.988
		c0,0.364-0.133,0.813-0.4,1.346c-0.266,0.533-0.631,1.107-1.093,1.724c-0.463,0.617-1.023,1.255-1.682,1.914
		s-1.367,1.283-2.124,1.872c-1.654,1.318-3.372,2.565-5.152,3.743s-3.589,2.208-5.425,3.091c-1.836,0.883-3.666,1.584-5.488,2.103
		c-1.822,0.519-3.617,0.778-5.383,0.778c-2.019,0-3.743-0.322-5.173-0.967c-1.43-0.645-2.594-1.507-3.491-2.586
		s-1.556-2.306-1.977-3.68S368.675,86.548,368.675,85.062z"/>
	<path fill="#FFFFFF" d="M445.008,76.062c0,0.981-0.365,2.047-1.093,3.196s-1.766,2.439-3.112,3.869
		c-1.542,1.626-3.238,3.133-5.089,4.521s-3.757,2.594-5.72,3.617c-1.963,1.023-3.953,1.829-5.972,2.418s-3.967,0.883-5.846,0.883
		c-4.402,0-7.809-1.416-10.22-4.248s-3.617-6.981-3.617-12.449c0-1.738,0.154-3.512,0.463-5.32c0.308-1.808,0.764-3.596,1.367-5.362
		s1.36-3.477,2.271-5.131s1.97-3.196,3.175-4.626c0.757-0.869,1.598-1.752,2.523-2.65c0.925-0.897,1.949-1.703,3.07-2.418
		c1.122-0.715,2.348-1.297,3.68-1.745c1.332-0.449,2.783-0.673,4.353-0.673c1.122,0,2.131,0.217,3.028,0.652
		s1.654,0.988,2.271,1.661c0.617,0.673,1.086,1.43,1.409,2.271c0.322,0.841,0.484,1.668,0.484,2.481c0,1.71-0.463,3.442-1.388,5.194
		s-2.229,3.519-3.911,5.299s-3.701,3.561-6.056,5.341c-2.355,1.78-4.977,3.554-7.865,5.32c-0.393,0.224-0.785,0.47-1.178,0.736
		s-0.589,0.596-0.589,0.988c0,0.841,0.112,1.724,0.336,2.65s0.631,1.773,1.22,2.544c0.589,0.771,1.381,1.409,2.376,1.914
		s2.264,0.757,3.806,0.757c1.963,0,3.96-0.315,5.993-0.946c2.033-0.631,4.023-1.507,5.972-2.629
		c1.949-1.122,3.841-2.453,5.678-3.995s3.554-3.21,5.152-5.005c0.897-0.981,1.612-1.472,2.145-1.472
		c0.308,0,0.533,0.182,0.673,0.547C444.938,74.618,445.008,75.221,445.008,76.062z M425.494,58.103c0-0.308-0.084-0.589-0.252-0.841
		c-0.168-0.252-0.372-0.463-0.61-0.631c-0.238-0.168-0.491-0.301-0.757-0.4s-0.498-0.147-0.694-0.147
		c-1.234,0-2.495,0.442-3.785,1.325c-1.29,0.883-2.495,2.11-3.617,3.68c-1.121,1.57-2.103,3.435-2.944,5.594
		c-0.841,2.159-1.416,4.5-1.724,7.023c0.393-0.252,0.911-0.617,1.556-1.093c0.645-0.477,1.339-1.002,2.082-1.577
		c0.743-0.575,1.486-1.157,2.229-1.745c0.743-0.589,1.409-1.136,1.998-1.64c1.29-1.093,2.355-2.068,3.196-2.923
		c0.841-0.855,1.507-1.64,1.998-2.355s0.834-1.416,1.03-2.103C425.396,59.582,425.494,58.86,425.494,58.103z"/>
</g>
<text transform="matrix(1 0 0 1 82.7824 175.4779)" fill="#2096D5" font-family="'ArialMT'" font-size="36">SHARE YOUR MOMENTS</text>
</svg>
